<?xml version="1.0" encoding="UTF-8" standalone="no"?>
<svg
   id="Layer_1"
   data-name="Layer 1"
   width="750"
   height="630.46"
   viewBox="0 0 750 630.46"
   version="1.1"
   sodipodi:docname="NEWbase.svg"
   xml:space="preserve"
   inkscape:version="1.4.3 (0d15f75, 2025-12-25)"
   xmlns:inkscape="http://www.inkscape.org/namespaces/inkscape"
   xmlns:sodipodi="http://sodipodi.sourceforge.net/DTD/sodipodi-0.dtd"
   xmlns="http://www.w3.org/2000/svg"
   xmlns:svg="http://www.w3.org/2000/svg"><sodipodi:namedview
     id="namedview57"
     pagecolor="#ffffff"
     bordercolor="#000000"
     borderopacity="0.25"
     inkscape:showpageshadow="2"
     inkscape:pageopacity="0.0"
     inkscape:pagecheckerboard="0"
     inkscape:deskcolor="#d1d1d1"
     inkscape:zoom="1.4142136"
     inkscape:cx="360.62446"
     inkscape:cy="210.36427"
     inkscape:window-width="2560"
     inkscape:window-height="1377"
     inkscape:window-x="-8"
     inkscape:window-y="-8"
     inkscape:window-maximized="1"
     inkscape:current-layer="g57" /><defs
     id="defs1"><style
       id="style1">
      .cls-1 {
        fill: none;
      }

      .cls-2 {
        fill: #050505;
      }

      .cls-3 {
        fill: #0d0808;
      }

      .cls-4 {
        fill: #141414;
      }

      .cls-5 {
        fill: #120b0b;
      }

      .cls-6 {
        fill: #242424;
      }

      .cls-7 {
        fill: #292929;
      }

      .cls-8 {
        fill: #191919;
      }

      .cls-9 {
        fill: #1c1c1c;
      }

      .cls-10 {
        fill: #171717;
      }

      .cls-11 {
        fill: #0f0f0f;
      }

      .cls-12 {
        fill: #1a1a1a;
      }

      .cls-13 {
        fill: #1a1615;
      }

      .cls-14, .cls-18 {
        fill: #0a0a0a;
      }

      .cls-14 {
        stroke: #000;
      }

      .cls-14, .cls-16, .cls-17 {
        stroke-miterlimit: 10;
      }

      .cls-15 {
        fill: #6d6b6c;
      }

      .cls-16 {
        fill: #080808;
        stroke: #140c0c;
      }

      .cls-16, .cls-17 {
        stroke-width: 2px;
      }

      .cls-17 {
        stroke: #120b0b;
      }

      .cls-19 {
        fill: #0d0d0d;
      }

      .cls-20 {
        isolation: isolate;
        opacity: 0.75;
      }

      .cls-21 {
        fill: #fff;
      }
    </style></defs><g
     id="Layer_1-2"
     data-name="Layer 1"><path
       d="M664.37,214c-6.72-16.68-20.54-20.88-21.82-22-11.7-10.34-2.47-21.22-19.95-30.7-18.28-9.91-72-37-114.22-31.37-9.22,1.23-27.83,17.6-41.21,17.6H282.84c-13.38,0-32-16.37-41.22-17.6-42.24-5.63-95.93,21.46-114.22,31.37-17.47,9.48-8.24,20.36-19.94,30.7-1.28,1.12-15.1,5.32-21.82,22C22.89,370-1.74,469.11.09,529.13,3,623.55,76.67,630.46,76.67,630.46c37-8.62,111.55-129.14,168.54-129.14H504.8c57,0,131.5,120.52,168.54,129.14,0,0,73.68-6.91,76.56-101.33C751.77,469.11,727.09,370,664.37,214Z"
       id="path1"
       style="fill:#010016;fill-opacity:1"
       transform="translate(0 0)" /><g
       id="g4"
       style="display:inline;fill:#010016;fill-opacity:1"><path
         class="cls-1"
         d="m 106.25,192.64 a 11.36,11.36 0 0 0 1.15,-0.65 c -0.4,0.22 -0.77,0.42 -1.15,0.65 z"
         id="path2"
         style="fill:#010016;fill-opacity:1" /><path
         class="cls-1"
         d="m 642.56,192 a 12.43,12.43 0 0 0 1.53,0.82 c -0.5,-0.31 -1.02,-0.58 -1.53,-0.82 z"
         id="path3"
         style="fill:#010016;fill-opacity:1" /><path
         class="cls-2"
         d="m 664.37,214 a 38.35,38.35 0 0 0 -12.89,-16.8 45.61,45.61 0 0 0 -7.4,-4.37 12.85,12.85 0 0 1 -1.52,-0.82 C 609,174 545.1,153.81 525.08,157.66 c -26,5 -65.54,79.72 -89,79.72 h -121 c -23.43,0 -63,-74.7 -89,-79.72 -19.58,-3.78 -85.59,16.46 -118.75,34.33 a 11.36,11.36 0 0 1 -1.15,0.65 44.89,44.89 0 0 0 -8.7,5.27 A 38.36,38.36 0 0 0 85.64,214 C 22.89,370 -1.74,469.11 0.09,529.13 3,623.55 76.67,630.46 76.67,630.46 c 37,-8.62 111.55,-129.14 168.54,-129.14 H 504.8 c 57,0 131.5,120.52 168.54,129.14 0,0 73.68,-6.91 76.56,-101.33 C 751.77,469.11 727.09,370 664.37,214 Z"
         id="path4"
         style="fill:#010016;fill-opacity:1" /></g><line
       class="cls-1"
       x1="107.46"
       y1="191.96"
       x2="107.46"
       y2="193.52"
       id="line4" /><line
       class="cls-1"
       x1="642.55"
       y1="191.47"
       x2="642.55"
       y2="192.42"
       id="line5" /><g
       id="Dpad"
       style="display:inline"><g
         id="g6"
         style="fill:#484b79;fill-opacity:1"><path
           d="m 277.67,462.11 a 60.63,60.63 0 1 1 60.62,-60.62 60.69,60.69 0 0 1 -60.62,60.62 z"
           id="path5"
           style="fill:#484b79;fill-opacity:1" /><path
           class="cls-3"
           d="M 277.67,341.86 A 59.63,59.63 0 1 1 218,401.49 59.69,59.69 0 0 1 277.64,341.86 m 0,-2 a 61.63,61.63 0 1 0 61.62,61.63 61.63,61.63 0 0 0 -61.62,-61.63 z"
           id="path6"
           style="fill:#484b79;fill-opacity:1" /></g><g
         id="g20"
         style="fill:#24264f;fill-opacity:1"><g
           id="g8"
           style="fill:#24264f;fill-opacity:1"><path
             class="cls-4"
             d="m 277.67,452.7 c -7.13,0 -12.74,-1.32 -13.05,-3.08 a 0.76,0.76 0 0 1 0,-0.15 v -34.42 a 0.5,0.5 0 0 0 -0.5,-0.5 h -34.43 c -1.82,0 -3.25,-5.74 -3.25,-13.06 0,-7.32 1.43,-13.06 3.25,-13.06 h 34.42 a 0.5,0.5 0 0 0 0.5,-0.5 v -34.42 a 0.61,0.61 0 0 1 0,-0.14 l 0.06,-0.23 0.08,-0.13 c 0.5,-0.81 2.11,-1.52 4.54,-2 l 0.89,-0.18 a 9.49,9.49 0 0 1 1,-0.13 h 0.16 l 0.9,-0.11 1,-0.11 1,-0.08 2.36,-0.08 h 1.05 c 7.33,0 13.06,1.42 13.06,3.23 0,0.17 0,16 0,34.42 a 0.5,0.5 0 0 0 0.5,0.5 h 34.41 c 1.81,0 3.23,5.74 3.23,13.06 0,7.32 -1.42,13.06 -3.23,13.06 h -34.38 a 0.5,0.5 0 0 0 -0.5,0.5 v 34.42 a 0.77,0.77 0 0 1 0,0.15 c -0.32,1.72 -5.94,3.04 -13.07,3.04 z"
             id="path7"
             style="fill:#24264f;fill-opacity:1" /><path
             class="cls-5"
             d="m 277.67,350.78 c 8.09,0 12.56,1.61 12.56,2.73 v 34.43 a 1,1 0 0 0 1,1 h 34.42 c 1.14,0 2.73,4.77 2.73,12.55 0,7.78 -1.59,12.56 -2.73,12.56 h -34.42 a 1,1 0 0 0 -1,1 v 34.49 c -0.2,1.11 -4.67,2.66 -12.56,2.66 -7.89,0 -12.36,-1.55 -12.56,-2.66 v -34.49 a 1,1 0 0 0 -1,-1 h -34.42 c -1.15,0 -2.75,-4.78 -2.75,-12.56 0,-7.78 1.6,-12.56 2.75,-12.56 h 34.42 a 1,1 0 0 0 1,-1 v -34.46 0 a 0.74,0.74 0 0 0 0,-0.14 v -0.05 c 0.15,-0.25 0.91,-1.12 4.19,-1.76 h 0.06 c 0.27,-0.07 0.55,-0.12 0.83,-0.17 h 0.08 a 6.73,6.73 0 0 1 0.8,-0.11 h 0.18 l 0.92,-0.12 v 0 l 1,-0.11 v 0 l 1,-0.08 h 0.12 0.58 0.56 1 1.15 m 0,-1 h -1.18 -1 -0.17 -1 -0.14 l -1,0.08 v 0 l -1,0.11 v 0 l -1,0.13 h -0.05 a 8.88,8.88 0 0 0 -0.94,0.13 h -0.08 l -0.88,0.18 v 0 c -2.43,0.48 -4.25,1.22 -4.86,2.23 a 0.46,0.46 0 0 0 -0.11,0.16 v 0 a 1.16,1.16 0 0 0 0,0.18 v 0 a 0.89,0.89 0 0 0 0,0.14 0.86,0.86 0 0 0 0,0.22 v 34.43 h -34.48 c -5,0 -5,27.11 0,27.11 h 34.42 v 34.42 0 a 1,1 0 0 0 0,0.24 c 0.4,2.33 7,3.49 13.54,3.49 6.54,0 13.13,-1.16 13.54,-3.49 a 2.12,2.12 0 0 0 0,-0.24 v -34.4 h 34.42 c 5,0 5,-27.11 0,-27.11 h -34.38 v -34.43 0 c 0,-2.5 -6.79,-3.73 -13.56,-3.73 z"
             id="path8"
             style="fill:#24264f;fill-opacity:1" /></g><path
           class="cls-6"
           d="m 264.11,387.94 -3.6,-3.63 h -30.82 a 5.08,5.08 0 0 0 -2.78,0.85 l 2.78,2.78 z"
           id="path9"
           style="fill:#010016;fill-opacity:1" /><path
           class="cls-7"
           d="m 229.69,387.94 v 0 l -2.79,-2.78 c -1.36,0.93 -2.67,2.74 -3.52,6.14 a 50.92,50.92 0 0 0 0,20.38 c 0.85,3.4 2.16,5.21 3.52,6.14 l 2.79,-2.77 c -5,0 -5,-27.11 0,-27.11 z"
           id="path10"
           style="fill:#010016;fill-opacity:1" /><path
           class="cls-6"
           d="m 269.2,350.52 v 0 l 0.89,-0.18 h 0.07 a 6.87,6.87 0 0 1 0.94,-0.13 h 0.06 l 1,-0.13 v 0 l 1,-0.11 h 0.05 l 1,-0.08 h 0.14 1 0.16 1 1.17 c 6.77,0 13.57,1.23 13.57,3.73 l 2.75,-2.77 c -0.9,-1.37 -2.71,-2.71 -6.14,-3.53 a 50.82,50.82 0 0 0 -20.36,0 c -2.94,0.72 -4.71,1.8 -5.72,3 l 2.57,2.57 c 0.65,-1.15 2.42,-1.89 4.85,-2.37 z"
           id="path11"
           style="fill:#010016;fill-opacity:1" /><path
           class="cls-8"
           d="m 325.65,387.94 2.76,-2.78 a 5,5 0 0 0 -2.76,-0.85 h -30.81 l -3.61,3.63 z"
           id="path12"
           style="fill:#010016;fill-opacity:1" /><path
           class="cls-9"
           d="m 291.23,353.51 v 0 c 0,0 0,15.44 0,34.42 l 3.6,-3.62 v 0 -30.8 a 5,5 0 0 0 -0.85,-2.77 l -2.76,2.77 z"
           id="path13"
           style="fill:#010016;fill-opacity:1" /><path
           class="cls-7"
           d="m 264.11,353.51 a 1.8,1.8 0 0 1 0,-0.22 v -0.14 0 c 0,-0.06 0,-0.12 0,-0.18 v 0 a 1,1 0 0 1 0.11,-0.17 l -2.57,-2.57 a 5,5 0 0 0 -1.26,3.34 v 30.8 l 3.6,3.62 z"
           id="path14"
           style="fill:#010016;fill-opacity:1" /><path
           class="cls-10"
           d="m 325.65,415.05 h -34.42 l 3.6,3.62 h 32.32 l 0.34,-0.35 a 5.46,5.46 0 0 0 0.92,-0.49 z"
           id="path15"
           style="fill:#010016;fill-opacity:1" /><path
           class="cls-11"
           d="m 291.23,449.47 2.76,2.77 a 5,5 0 0 0 0.84,-2.77 v -30.8 l -3.6,-3.62 z"
           id="path16"
           style="fill:#010016;fill-opacity:1" /><path
           class="cls-11"
           d="m 332,391.3 c -0.84,-3.4 -2.18,-5.21 -3.55,-6.14 l -2.76,2.77 c 5,0 5,27.12 0,27.12 l 2.77,2.78 c 1.36,-0.93 2.7,-2.75 3.54,-6.15 a 45,45 0 0 0 1,-10.19 45.54,45.54 0 0 0 -1,-10.19 z"
           id="path17"
           style="fill:#010016;fill-opacity:1" /><path
           class="cls-10"
           d="m 291.21,449.71 c -0.4,2.33 -7,3.49 -13.54,3.49 -6.54,0 -13.13,-1.16 -13.54,-3.49 a 2.32,2.32 0 0 1 0,-0.24 l -2.79,2.77 c 0.93,1.37 2.75,2.71 6.17,3.53 a 50.34,50.34 0 0 0 20.36,0 c 3.43,-0.82 5.24,-2.16 6.14,-3.53 l -2.75,-2.77 c -0.03,0.07 -0.03,0.15 -0.05,0.24 z"
           id="path18"
           style="fill:#010016;fill-opacity:1" /><path
           class="cls-9"
           d="m 264.11,449.47 v 0 -34.42 l -3.6,3.62 v 31.65 l 0.09,0.23 a 5.09,5.09 0 0 0 0.72,1.69 z"
           id="path19"
           style="fill:#010016;fill-opacity:1" /><path
           class="cls-12"
           d="m 229.69,415.05 -2.79,2.77 a 5.11,5.11 0 0 0 2.79,0.85 h 30.82 l 3.6,-3.62 z"
           id="path20"
           style="fill:#010016;fill-opacity:1" /></g></g><g
       id="Menu_Key"
       data-name="Menu Key"
       style="fill:#484b79;fill-opacity:1"><path
         class="cls-14"
         d="M446.23,280.37a16.11,16.11,0,1,1-16.1-16.11A16.11,16.11,0,0,1,446.23,280.37Z"
         id="path22"
         style="fill:#484b79;fill-opacity:1" /></g><g
       id="Switcher_Key"
       data-name="Switcher Key"
       style="fill:#484b79;fill-opacity:1"><path
         class="cls-14"
         d="M338.22,280.37a16.1,16.1,0,1,1-16.1-16.11A16.09,16.09,0,0,1,338.22,280.37Z"
         id="path26"
         style="fill:#484b79;fill-opacity:1" /></g><g
       id="Left_Stick"
       data-name="Left Stick"
       style="fill:#484b79;fill-opacity:1"><path
         class="cls-17"
         d="M241.57,279.86a56.1,56.1,0,1,1-56.1-56.1A56.09,56.09,0,0,1,241.57,279.86Z"
         id="path29"
         transform="translate(0 0)"
         style="fill:#484b79;fill-opacity:1" /></g><g
       id="Right_Stick"
       data-name="Right Stick"
       style="fill:#484b79;fill-opacity:1"><path
         class="cls-17"
         d="M529.15,393.82A56.1,56.1,0,1,1,473,337.73,56.09,56.09,0,0,1,529.15,393.82Z"
         id="path31"
         transform="translate(0 0)"
         style="fill:#484b79;fill-opacity:1" /></g><g
       id="g50"><g
         id="g41"><path
           class="cls-12"
           d="m 275.07,153.5 -16.39,30.53 c 20.24,23.27 41.59,53.32 56.44,53.32 h 121 c 14.87,0 36.2,-30 56.46,-53.32 L 476.2,153.5 Z"
           id="path40"
           style="fill:#484b79;fill-opacity:1"
           sodipodi:nodetypes="ccssccc" /><path
           class="cls-19"
           d="m 476.19,153.53 -3.64,-6.78 c -1.75443,0.47634 -3.56218,0.72835 -5.38,0.75 H 282.84 c -1.44084,-0.0158 -2.87579,-0.18678 -4.28,-0.51 l -3.49,6.54 z"
           id="path41"
           style="fill:#010016;fill-opacity:1"
           sodipodi:nodetypes="ccccccc" /></g><g
         id="RB"><path
           class="cls-12"
           d="M642.55,192c-9-7.94-5.64-16.16-11.47-23.85.24.33.49.65.7,1,0,0-96.53-42.06-120.8-34.48-15.57,4.87-27.24,15.34-32.83,18.23L494,182.42c11.17-12.68,22-23,31.06-24.76C545.1,153.81,609,174,642.56,192Z"
           id="path42"
           style="fill:#484b79;fill-opacity:1"
           transform="translate(0 0)" /><path
           class="cls-19"
           d="M511,134.62c24.27-7.59,120.77,34.46,120.8,34.47-.21-.33-.46-.65-.7-1L631,168c-.1-.14-.18-.25-.29-.38l-.14-.16-.27-.33a1.21,1.21,0,0,1-.16-.16,1.61,1.61,0,0,0-.28-.3l-.16-.2a4,4,0,0,1-.29-.29,1.89,1.89,0,0,0-.2-.2,2,2,0,0,1-.29-.29l-.23-.18a1.33,1.33,0,0,0-.3-.28l-.23-.21c-.11-.1-.21-.17-.31-.27l-.27-.22-.33-.26a1.85,1.85,0,0,0-.27-.19c-.12-.1-.22-.19-.35-.28a1.71,1.71,0,0,1-.27-.2l-.38-.26-.29-.22a3.21,3.21,0,0,1-.41-.26l-.3-.2a5,5,0,0,1-.45-.29,1.46,1.46,0,0,1-.3-.17,4.74,4.74,0,0,0-.53-.3l-.25-.17c-.28-.15-.56-.3-.84-.47-18.28-9.91-72-37-114.22-31.37-7.61,1-21.63,12.34-33.82,16.28l3.59,6.67C483.74,150,495.41,139.48,511,134.62Z"
           id="path43"
           style="fill:#010016;fill-opacity:1"
           transform="translate(0 0)" /></g><g
         id="LB"><path
           class="cls-19"
           d="M241.62,129.89c-42.24-5.63-95.93,21.46-114.22,31.37-.27.17-.55.31-.82.47l-.25.16a4.85,4.85,0,0,0-.54.3,1.17,1.17,0,0,1-.29.17l-.45.3-.29.18a3,3,0,0,1-.42.27l-.26.2-.4.27a2.07,2.07,0,0,1-.25.19,3.8,3.8,0,0,0-.38.29,1.5,1.5,0,0,0-.24.18,4.5,4.5,0,0,1-.37.28l-.22.19c-.12.11-.23.19-.35.29l-.19.19a1.92,1.92,0,0,0-.34.3.9.9,0,0,1-.19.15c-.12.12-.21.23-.33.33l-.16.15a2.57,2.57,0,0,1-.33.33l-.12.16a2.66,2.66,0,0,0-.32.35l-.11.12a3.52,3.52,0,0,0-.32.37l-.09.1c-.12.15-.22.27-.32.41L119,168c-.11.14-.21.29-.32.44l0,.05c-.13.15-.23.32-.34.47,0,0,97.69-42,122-34.38,15.54,4.87,27.22,15.33,32.8,18.22l3.42-6.34C264.09,142.91,249.47,130.92,241.62,129.89Z"
           id="path44"
           style="fill:#010016;fill-opacity:1"
           transform="translate(0 0)" /><g
           id="g47"
           style="fill:#484b79;fill-opacity:1"><path
             class="cls-12"
             d="M273.57,153.1l.46.18Z"
             id="path45"
             style="fill:#484b79;fill-opacity:1"
             transform="translate(0 0)" /><path
             class="cls-12"
             d="M273.1,152.85c-5.58-2.89-17.27-13.36-32.82-18.23C216.07,127.06,119,168.71,118.3,169c-5,7.44-2.21,15.33-10.84,23l-.06,0c33.16-17.87,99.17-38.11,118.75-34.33,9.13,1.76,19.91,12.08,31.08,24.76l15.85-29.58Z"
             id="path46"
             style="fill:#484b79;fill-opacity:1"
             transform="translate(0 0)" /><path
             d="M273.1,152.85c.17.08.31.17.47.25C273.41,153,273.27,152.93,273.1,152.85Z"
             id="path47"
             style="fill:#484b79;fill-opacity:1"
             transform="translate(0 0)" /></g><path
           d="M258,183.23c.23.29.47.56.72.83l16.39-30.53,3.49-6.54c-.35-.06-.69-.13-1-.22s-.67-.19-1-.27l-3.43,6.34-15.85,29.58c.24.27.47.54.73.81h0"
           id="path48"
           transform="translate(0 0)" /></g><path
         d="M478.15,152.84l-3.59-6.67c-.33.09-.66.21-1,.31l-1,.27,3.64,6.78,16.38,30.54c.24-.28.5-.54.73-.84s.49-.54.72-.81Z"
         id="path49"
         transform="translate(0 0)" /><path
         class="cls-12"
         d="M357,169.29h0Z"
         id="path50"
         transform="translate(0 0)" /></g><g
       id="g57"
       style="fill:#484b79;fill-opacity:1"><g
         id="g54"
         style="fill:#484b79;fill-opacity:1"><path
           id="path54"
           style="fill:#484b79;fill-opacity:1"
           class="cls-4"
           d="m 522,0.14 c -10.78,0.41 -12,11.44 -12.14,15.19 v 1.23 c 1.76379,31.004936 1.76379,62.085064 0,93.09 9.93,2.29 38.54,5.3 38.54,5.3 -0.14043,-36.789995 8.31468,-67.640583 5.47,-104.38 C 547.45,6.09 534.3,-0.31 522,0.14 Z m 31.87,10.43 -8.35,104 51.28,7.24 C 593.74461,72.638083 592.83221,38.41158 553.87,10.57 Z"
           sodipodi:nodetypes="ccccccccccc" /></g><g
         id="g56"
         style="fill:#484b79;fill-opacity:1"><path
           id="path56"
           style="fill:#484b79;fill-opacity:1"
           class="cls-4"
           d="m 228,0.14 c 10.84,0.41 12.07,11.44 12.19,15.19 v 1.23 c -1.76379,31.004936 -1.76379,62.085064 0,93.09 -9.92,2.29 -38.53,5.3 -38.53,5.3 C 201.80186,78.162131 194.33868,47.305396 197.21,10.57 203.62,6.09 215.77,-0.31 228,0.14 Z m -30.79,10.43 7.32,104 -51.25,7.24 c 3.05216,-49.181993 4.96616,-83.397257 43.93,-111.24 z"
           sodipodi:nodetypes="ccccccccccc" /></g></g></g></svg>
