<?xml version="1.0" encoding="UTF-8" standalone="no"?>
<svg
   id="Layer_2"
   data-name="Layer 2"
   width="90.400002"
   height="83.400002"
   viewBox="0 0 90.4 83.4"
   version="1.1"
   sodipodi:docname="stick-pressed.svg"
   xml:space="preserve"
   inkscape:version="1.4.3 (0d15f75, 2025-12-25)"
   xmlns:inkscape="http://www.inkscape.org/namespaces/inkscape"
   xmlns:sodipodi="http://sodipodi.sourceforge.net/DTD/sodipodi-0.dtd"
   xmlns="http://www.w3.org/2000/svg"
   xmlns:svg="http://www.w3.org/2000/svg"><sodipodi:namedview
     id="namedview6"
     pagecolor="#ffffff"
     bordercolor="#000000"
     borderopacity="0.25"
     inkscape:showpageshadow="2"
     inkscape:pageopacity="0.0"
     inkscape:pagecheckerboard="0"
     inkscape:deskcolor="#d1d1d1"
     inkscape:zoom="9.9622356"
     inkscape:cx="20.376952"
     inkscape:cy="72.925398"
     inkscape:window-width="2560"
     inkscape:window-height="1377"
     inkscape:window-x="-8"
     inkscape:window-y="-8"
     inkscape:window-maximized="1"
     inkscape:current-layer="LS_pressed" /><defs
     id="defs1"><style
       id="style1">
      .cls-1 {
        opacity: .06;
      }

      .cls-2, .cls-3, .cls-4, .cls-5, .cls-6 {
        stroke-width: 0px;
      }

      .cls-3 {
        fill: #dedede;
      }

      .cls-4 {
        fill: #d9d9d9;
      }

      .cls-5 {
        fill: #bfbfbf;
      }

      .cls-6 {
        fill: #e5e5e5;
      }
    </style></defs><g
     id="Layer_1-2"
     data-name="Layer 1"
     style="fill:#7ddcff;fill-opacity:1"><g
       id="LS_pressed"
       data-name="LS pressed"
       style="fill:#7ddcff;fill-opacity:1"><g
         id="g2"
         style="fill:#7ddcff;fill-opacity:1"><path
           class="cls-6"
           d="M 83.4,41.7 C 83.4,64.73 64.73,83.4 41.7,83.4 18.67,83.4 0,64.73 0,41.7 0,18.67 18.67,0 41.7,0 64.72,0 83.39,18.66 83.4,41.68 Z"
           id="path1"
           style="display:inline;fill:#7ddcff;fill-opacity:1" /></g><path
         class="cls-4"
         d="M 41.7,2 C 63.62,2 81.39,19.77 81.39,41.69 81.39,63.61 63.62,81.38 41.7,81.38 19.78,81.38 2.02,63.62 2.01,41.7 2.04,19.79 19.79,2.03 41.7,2 m 0,-2 C 18.68,0 0.01,18.68 0.02,41.7 0.02,64.72 18.7,83.39 41.72,83.38 64.74,83.38 83.39,64.72 83.4,41.7 83.41,18.68 64.74,0 41.72,0 c 0,0 -0.01,0 -0.02,0 z"
         id="path3"
         style="fill:#7ddcff;fill-opacity:1" /><g
         class="cls-1"
         id="g4"
         style="fill:#7ddcff;fill-opacity:1"><path
           class="cls-2"
           d="m 77.72,41.7 c 0,19.88 -16.12,36 -36,36 -19.88,0 -36,-16.12 -36,-36 0,-19.88 16.12,-36 36,-36 19.88,0 36,16.12 36,36 z"
           id="path4"
           style="fill:#7ddcff;fill-opacity:1" /></g><g
         id="g6"
         style="fill:#7ddcff;fill-opacity:1"><path
           class="cls-3"
           d="m 41.7,69.83 c -15.54,0 -28.13,-12.58 -28.14,-28.12 0,-15.54 12.58,-28.13 28.12,-28.14 15.54,0 28.13,12.58 28.14,28.12 v 0 C 69.8,57.23 57.23,69.81 41.7,69.83 Z"
           id="path5"
           style="fill:#7ddcff;fill-opacity:1" /><path
           class="cls-6"
           d="m 41.7,16.58 c 13.88,0 25.13,11.25 25.13,25.13 0,13.88 -11.25,25.13 -25.13,25.13 -13.88,0 -25.13,-11.25 -25.13,-25.13 0,0 0,0 0,0 C 16.59,27.84 27.83,16.6 41.7,16.59 m 0,-6 c -17.19,0 -31.13,13.93 -31.14,31.12 0,17.19 13.93,31.13 31.12,31.14 17.19,0.01 31.13,-13.93 31.14,-31.12 V 41.71 C 72.82,24.52 58.89,10.59 41.7,10.59 Z"
           id="path6"
           style="fill:#7ddcff;fill-opacity:1" /></g></g></g></svg>
