<?xml version="1.0" encoding="UTF-8" standalone="no"?>
<svg
   id="Layer_2"
   data-name="Layer 2"
   width="87.379997"
   height="83.379997"
   viewBox="0 0 87.38 83.38"
   version="1.1"
   sodipodi:docname="stick.svg"
   xml:space="preserve"
   inkscape:version="1.4.3 (0d15f75, 2025-12-25)"
   xmlns:inkscape="http://www.inkscape.org/namespaces/inkscape"
   xmlns:sodipodi="http://sodipodi.sourceforge.net/DTD/sodipodi-0.dtd"
   xmlns="http://www.w3.org/2000/svg"
   xmlns:svg="http://www.w3.org/2000/svg"><sodipodi:namedview
     id="namedview7"
     pagecolor="#ffffff"
     bordercolor="#000000"
     borderopacity="0.25"
     inkscape:showpageshadow="2"
     inkscape:pageopacity="0.0"
     inkscape:pagecheckerboard="0"
     inkscape:deskcolor="#d1d1d1"
     inkscape:zoom="7.0460545"
     inkscape:cx="1.2773106"
     inkscape:cy="49.602228"
     inkscape:window-width="2560"
     inkscape:window-height="1377"
     inkscape:window-x="-8"
     inkscape:window-y="-8"
     inkscape:window-maximized="1"
     inkscape:current-layer="g7" /><defs
     id="defs1"><style
       id="style1">
      .cls-1 {
        opacity: .06;
      }

      .cls-2 {
        fill: #262626;
      }

      .cls-2, .cls-3, .cls-4, .cls-5, .cls-6 {
        stroke-width: 0px;
      }

      .cls-3 {
        fill: #1a1a1a;
      }

      .cls-4 {
        fill: #404040;
      }

      .cls-5 {
        fill: #212121;
      }

      .cls-6 {
        fill: #fff;
      }
    </style></defs><g
     id="Layer_1-2"
     data-name="Layer 1"><g
       id="g7"><g
         id="g2"><path
           class="cls-3"
           d="M 83.38,41.7 C 83.38,64.72 64.7,83.39 41.68,83.38 18.66,83.37 0,64.7 0,41.68 0,18.66 18.66,0 41.68,0 64.7,-0.01 83.37,18.64 83.38,41.66 Z"
           id="path1"
           style="fill:#086f95;fill-opacity:1" /></g><path
         class="cls-2"
         d="M 41.68,2 C 63.6,2 81.37,19.76 81.38,41.68 81.38,63.6 63.62,81.37 41.7,81.38 19.78,81.38 2.01,63.62 2,41.7 2.03,19.79 19.77,2.04 41.68,2 m 0,-2 C 18.66,0 0,18.68 0,41.7 0,64.72 18.68,83.39 41.7,83.38 64.72,83.38 83.37,64.72 83.38,41.7 83.39,18.68 64.72,0 41.7,0 c 0,0 -0.01,0 -0.02,0 z"
         id="path3"
         style="fill:#086f95;fill-opacity:1" /><g
         class="cls-1"
         id="g4"
         style="display:inline;fill:#282f97;fill-opacity:1" /><g
         id="g6"
         style="display:inline;fill:#282f97;fill-opacity:1"><path
           class="cls-5"
           d="m 41.68,69.83 c -15.54,0 -28.13,-12.59 -28.13,-28.13 0,-15.54 12.59,-28.13 28.13,-28.13 15.54,0 28.13,12.59 28.13,28.13 v 0 C 69.8,57.23 57.21,69.82 41.68,69.83 Z"
           id="path5"
           style="fill:#282f97;fill-opacity:1" /><path
           class="cls-3"
           d="M 41.68,16.58 C 55.56,16.55 66.84,27.77 66.87,41.65 66.9,55.53 55.68,66.81 41.8,66.84 27.92,66.87 16.64,55.65 16.61,41.77 c 0,-0.02 0,-0.05 0,-0.07 0.02,-13.87 11.25,-25.1 25.12,-25.12 m 0,-6 C 24.54,10.55 10.58,24.47 10.55,41.66 10.52,58.85 24.44,72.81 41.63,72.84 58.82,72.87 72.78,58.95 72.81,41.76 c 0,-0.02 0,-0.04 0,-0.06 0,-17.19 -13.93,-31.12 -31.12,-31.12 0,0 0,0 0,0 h 0.05 z"
           id="path6"
           style="fill:#282f97;fill-opacity:1" /></g></g></g></svg>
