<?xml version="1.0" encoding="UTF-8" standalone="no"?>
<svg
   id="Layer_2"
   data-name="Layer 2"
   width="50.380001"
   height="58"
   viewBox="0 0 50.38 57.999999"
   version="1.1"
   sodipodi:docname="x.svg"
   xml:space="preserve"
   inkscape:version="1.4.3 (0d15f75, 2025-12-25)"
   xmlns:inkscape="http://www.inkscape.org/namespaces/inkscape"
   xmlns:sodipodi="http://sodipodi.sourceforge.net/DTD/sodipodi-0.dtd"
   xmlns="http://www.w3.org/2000/svg"
   xmlns:svg="http://www.w3.org/2000/svg"><sodipodi:namedview
     id="namedview2"
     pagecolor="#ffffff"
     bordercolor="#000000"
     borderopacity="0.25"
     inkscape:showpageshadow="2"
     inkscape:pageopacity="0.0"
     inkscape:pagecheckerboard="0"
     inkscape:deskcolor="#d1d1d1"
     inkscape:zoom="24.799493"
     inkscape:cx="23.710162"
     inkscape:cy="27.762664"
     inkscape:window-width="2498"
     inkscape:window-height="1417"
     inkscape:window-x="-8"
     inkscape:window-y="-8"
     inkscape:window-maximized="1"
     inkscape:current-layer="Layer_2" /><defs
     id="defs1"><style
       id="style1">
      .cls-1 {
        fill: #141414;
      }

      .cls-1, .cls-2 {
        stroke-width: 0px;
      }

      .cls-2 {
        fill: #0071bc;
      }
    </style></defs><g
     id="Layer_1-2"
     data-name="Layer 1"><g
       id="g2"><g
         id="X"
         style="fill:#484b79;fill-opacity:1"><path
           class="cls-1"
           d="m 23.68,0 c 13.08,0 23.69,10.6 23.7,23.68 0,13.08 -10.6,23.69 -23.68,23.7 C 10.62,47.39 0,36.78 0,23.7 v 0 C 0,10.61 10.6,0.01 23.68,0 Z"
           id="path1"
           style="fill:#484b79;fill-opacity:1" /></g><path
         class="cls-2"
         d="m 30.8,38.83 -6.41,-11 c -0.12,-0.24 -0.22,-0.5 -0.3,-0.76 -0.05,-0.26 -0.13,-0.51 -0.22,-0.76 h -0.09 c -0.11,0.27 -0.19,0.52 -0.27,0.77 -0.09,0.26 -0.2,0.51 -0.33,0.75 l -6.53,11 H 10.53 L 20.67,23.64 11.41,8.53 h 6.19 l 5.4,10 c 0.42,0.71 0.76,1.48 1,2.27 h 0.08 c 0.3,-0.79 0.53,-1.31 0.65,-1.56 0.12,-0.25 2.21,-3.8 6.27,-10.66 h 5.68 l -9.46,15 9.58,15.28 z"
         id="path2"
         style="fill:#1bc1ff;fill-opacity:1" /></g></g></svg>
