<?xml version="1.0" encoding="UTF-8" standalone="no"?>
<svg
   id="Layer_2"
   data-name="Layer 2"
   width="50.380001"
   height="47.380001"
   viewBox="0 0 50.38 47.38"
   version="1.1"
   sodipodi:docname="y.svg"
   xml:space="preserve"
   inkscape:version="1.4.3 (0d15f75, 2025-12-25)"
   xmlns:inkscape="http://www.inkscape.org/namespaces/inkscape"
   xmlns:sodipodi="http://sodipodi.sourceforge.net/DTD/sodipodi-0.dtd"
   xmlns="http://www.w3.org/2000/svg"
   xmlns:svg="http://www.w3.org/2000/svg"><sodipodi:namedview
     id="namedview2"
     pagecolor="#ffffff"
     bordercolor="#000000"
     borderopacity="0.25"
     inkscape:showpageshadow="2"
     inkscape:pageopacity="0.0"
     inkscape:pagecheckerboard="0"
     inkscape:deskcolor="#d1d1d1"
     inkscape:zoom="17.53589"
     inkscape:cx="16.366435"
     inkscape:cy="26.488533"
     inkscape:window-width="2560"
     inkscape:window-height="1377"
     inkscape:window-x="-8"
     inkscape:window-y="-8"
     inkscape:window-maximized="1"
     inkscape:current-layer="Layer_2" /><defs
     id="defs1"><style
       id="style1">
      .cls-1 {
        fill: #141414;
      }

      .cls-1, .cls-2 {
        stroke-width: 0px;
      }

      .cls-2 {
        fill: #fcee21;
      }
    </style></defs><g
     id="Layer_1-2"
     data-name="Layer 1"><g
       id="g2"><g
         id="Y"
         style="display:inline;fill:#484b79;fill-opacity:1"><path
           class="cls-1"
           d="M 23.69,0 C 36.77,0 47.38,10.61 47.38,23.69 47.38,36.77 36.77,47.38 23.69,47.38 10.61,47.38 0,36.77 0,23.69 0,10.61 10.61,0 23.69,0 Z"
           id="path1"
           style="display:inline;fill:#484b79;fill-opacity:1" /></g><path
         class="cls-2"
         d="m 26.09,27.85 v 11 h -5 V 28 L 11.24,8.53 h 5.72 l 6.1,12.65 c 0.18,0.36 0.33,0.73 0.44,1.12 0.1,0.34 0.17,0.61 0.25,0.83 v 0 c 0.15,-0.66 0.38,-1.3 0.69,-1.91 L 30.82,8.53 h 5.31 z"
         id="path2"
         style="display:inline;fill:#1bc1ff;fill-opacity:1" /></g></g></svg>
